<svg width="132" height="132" viewBox="0 0 132 132" fill="none" xmlns="http://www.w3.org/2000/svg">
<circle cx="66" cy="66" r="66" fill="#7AC9B6"/>
<path d="M59.6532 90.26C60.0732 89.91 60.4932 87.53 61.2632 85.5C61.6832 83.47 62.8732 78.85 63.8532 76.61C64.8332 72.83 65.3932 72.34 66.5832 68C67.7032 64.08 70.5732 55.89 71.3432 54.21C71.9032 53.02 72.0432 52.32 71.7632 51.97C71.6232 51.13 68.6832 49.38 68.3332 49.31C67.9832 49.24 64.8332 50.71 61.4032 52.81C58.1132 55.26 54.8932 57.43 54.4032 57.99C53.5632 58.55 52.7232 59.39 52.4432 59.39C51.5332 59.88 46.9132 63.45 46.4932 63.59C45.9332 64.57 47.4032 67.02 48.5932 68.07C49.4332 68.56 49.9232 68.07 52.4432 66.11C54.1232 65.13 56.2932 63.17 57.9032 62.19C60.8432 59.95 63.7132 58.41 63.7132 58.41C63.7132 58.41 62.8032 59.95 61.9632 62.68C60.9832 65.62 59.9332 69.19 59.5832 70.45C58.4632 74.16 57.4832 77.1 57.0632 77.31C57.0632 77.31 55.8032 81.3 55.2432 84.03C54.3332 88.37 54.9632 88.65 55.5932 89.21C56.5032 90.12 59.1632 90.61 59.6532 90.26Z" fill="white"/>
</svg>
