<svg width="132" height="132" viewBox="0 0 132 132" fill="none" xmlns="http://www.w3.org/2000/svg">
<circle cx="66" cy="66" r="66" fill="#C45A31"/>
<path d="M53.34 88.44C54.32 88.72 60.9 86.83 62.51 86.2C64.82 85.43 66.36 85.08 68.04 85.29C69.16 85.22 70.63 85.29 70.98 85.08C71.75 84.94 72.87 84.87 73.99 84.87C77.7 85.57 79.31 83.61 77.84 82.35C77.28 81.72 77.07 81.23 77.07 81.23C77.07 80.88 76.37 80.32 75.39 80.04C73.57 79.48 70.77 79.06 70.63 79.69C70.63 79.69 70.49 80.04 70.28 79.55C69.65 79.06 63.77 79.9 61.04 80.88C60.2 81.16 58.73 81.86 58.87 81.44C58.52 81.44 64.61 74.86 65.87 74.23C66.85 73.39 73.5 66.11 74.41 64.99C76.72 61.56 77.07 58.2 75.6 55.96C74.69 54 71.4 51.76 70.28 51.83C70.28 51.83 69.3 51.48 68.25 51.48C65.59 50.64 61.95 52.11 58.17 54.56L56 55.75L56.7 58.76C57.26 59.32 57.75 60.16 58.1 60.3C58.8 60.44 59.92 59.74 61.25 59.46C64.54 57.15 66.08 56.8 68.32 57.57C70.35 58.2 70.63 58.2 70.35 59.18C70.14 59.88 69.44 61.42 68.67 62.54C67.76 63.45 66.92 64.57 66.78 65.27C66.22 65.83 65.24 66.6 64.82 66.88C64.33 67.16 63.98 67.58 63.98 67.58C63.84 68.21 62.16 70.03 60.2 72.13C58.31 74.09 56 76.19 55.3 77.1C54.81 77.66 53.9 78.5 53.41 79.27C52.99 79.55 52.5 79.76 52.43 80.11C52.36 80.46 51.17 83.12 50.82 82.84C50.47 82.84 49.98 84.59 50.26 85.01C50.68 85.92 52.78 88.23 53.34 88.44Z" fill="white"/>
</svg>
