<svg width="132" height="132" viewBox="0 0 132 132" fill="none" xmlns="http://www.w3.org/2000/svg">
<circle cx="66" cy="66" r="66" fill="#F3707A"/>
<path d="M59.3232 84.93C62.3332 84.72 66.6032 84.23 69.1932 82.76C74.0232 79.89 77.8032 73.8 75.8432 69.46C74.8632 68.13 72.3432 65.33 69.6832 64.35C68.9132 63.72 66.3932 63.44 66.3932 63.44C66.3932 63.16 69.8232 62.18 70.8032 61.41C72.9732 60.36 73.7432 59.52 76.0532 58.05C78.7832 55.6 79.4832 53.64 79.0632 51.61C78.2932 47.9 75.6332 46.36 71.3632 45.87C69.6132 45.73 63.7332 46.43 61.8432 46.92C60.2332 47.69 57.1532 49.51 56.9432 50.07C56.6632 50.77 57.9232 53.92 58.6232 54.13C58.9732 54.13 62.2632 53.29 62.4032 52.94C62.4732 52.59 66.6732 51.61 67.3732 51.89H67.6532C67.6532 51.54 69.1232 51.33 71.5032 51.54C73.8832 52.03 73.7432 52.59 72.6232 53.85C71.2932 54.97 69.9632 55.6 64.1532 58.82C57.7132 62.32 56.3832 63.3 56.5232 63.93C56.7332 64.35 57.2232 66.31 57.7832 66.94C58.9732 67.57 60.3032 68.13 61.1432 67.99C63.0332 67.85 66.4632 69.04 68.2832 70.3C70.9432 72.05 70.8032 73.59 68.2832 76.04C65.6232 78.7 60.0932 79.75 55.4032 78.77C53.3732 78.49 52.4632 79.47 52.3932 80.94C52.1832 82.62 55.7532 84.93 59.3232 84.93Z" fill="white"/>
</svg>
