<svg width="42" height="42" viewBox="0 0 42 42" fill="none" xmlns="http://www.w3.org/2000/svg">
<circle cx="21" cy="21" r="21" fill="#7AC9B6"/>
<path d="M20.0339 27.396C20.1659 27.286 20.2979 26.538 20.5399 25.9C20.6719 25.262 21.0459 23.81 21.3539 23.106C21.6619 21.918 21.8379 21.764 22.2119 20.4C22.5639 19.168 23.4659 16.594 23.7079 16.066C23.8839 15.692 23.9279 15.472 23.8399 15.362C23.7959 15.098 22.8719 14.548 22.7619 14.526C22.6519 14.504 21.6619 14.966 20.5839 15.626C19.5499 16.396 18.5379 17.078 18.3839 17.254C18.1199 17.43 17.8559 17.694 17.7679 17.694C17.4819 17.848 16.0299 18.97 15.8979 19.014C15.7219 19.322 16.1839 20.092 16.5579 20.422C16.8219 20.576 16.9759 20.422 17.7679 19.806C18.2959 19.498 18.9779 18.882 19.4839 18.574C20.4079 17.87 21.3099 17.386 21.3099 17.386C21.3099 17.386 21.0239 17.87 20.7599 18.728C20.4519 19.652 20.1219 20.774 20.0119 21.17C19.6599 22.336 19.3519 23.26 19.2199 23.326C19.2199 23.326 18.8239 24.58 18.6479 25.438C18.3619 26.802 18.5599 26.89 18.7579 27.066C19.0439 27.352 19.8799 27.506 20.0339 27.396Z" fill="white"/>
</svg>
