<svg width="43" height="42" viewBox="0 0 43 42" fill="none" xmlns="http://www.w3.org/2000/svg">
<circle cx="21.0537" cy="21" r="21" fill="#C45A31"/>
<path d="M16.6119 26.824C16.9199 26.912 18.9879 26.318 19.4939 26.12C20.2199 25.878 20.7039 25.768 21.2319 25.834C21.5839 25.812 22.0459 25.834 22.1559 25.768C22.3979 25.724 22.7499 25.702 23.1019 25.702C24.2679 25.922 24.7739 25.306 24.3119 24.91C24.1359 24.712 24.0699 24.558 24.0699 24.558C24.0699 24.448 23.8499 24.272 23.5419 24.184C22.9699 24.008 22.0899 23.876 22.0459 24.074C22.0459 24.074 22.0019 24.184 21.9359 24.03C21.7379 23.876 19.8899 24.14 19.0319 24.448C18.7679 24.536 18.3059 24.756 18.3499 24.624C18.2399 24.624 20.1539 22.556 20.5499 22.358C20.8579 22.094 22.9479 19.806 23.2339 19.454C23.9599 18.376 24.0699 17.32 23.6079 16.616C23.3219 16 22.2879 15.296 21.9359 15.318C21.9359 15.318 21.6279 15.208 21.2979 15.208C20.4619 14.944 19.3179 15.406 18.1299 16.176L17.4479 16.55L17.6679 17.496C17.8439 17.672 17.9979 17.936 18.1079 17.98C18.3279 18.024 18.6799 17.804 19.0979 17.716C20.1319 16.99 20.6159 16.88 21.3199 17.122C21.9579 17.32 22.0459 17.32 21.9579 17.628C21.8919 17.848 21.6719 18.332 21.4299 18.684C21.1439 18.97 20.8799 19.322 20.8359 19.542C20.6599 19.718 20.3519 19.96 20.2199 20.048C20.0659 20.136 19.9559 20.268 19.9559 20.268C19.9119 20.466 19.3839 21.038 18.7679 21.698C18.1739 22.314 17.4479 22.974 17.2279 23.26C17.0739 23.436 16.7879 23.7 16.6339 23.942C16.5019 24.03 16.3479 24.096 16.3259 24.206C16.3039 24.316 15.9299 25.152 15.8199 25.064C15.7099 25.064 15.5559 25.614 15.6439 25.746C15.7759 26.032 16.4359 26.758 16.6119 26.824Z" fill="white"/>
</svg>
