<svg width="43" height="42" viewBox="0 0 43 42" fill="none" xmlns="http://www.w3.org/2000/svg">
<circle cx="21.0537" cy="21" r="21" fill="#F3707A"/>
<path d="M18.4159 26.978C19.3619 26.912 20.7039 26.758 21.5179 26.296C23.0359 25.394 24.2239 23.48 23.6079 22.116C23.2999 21.698 22.5079 20.818 21.6719 20.51C21.4299 20.312 20.6379 20.224 20.6379 20.224C20.6379 20.136 21.7159 19.828 22.0239 19.586C22.7059 19.256 22.9479 18.992 23.6739 18.53C24.5319 17.76 24.7519 17.144 24.6199 16.506C24.3779 15.34 23.5419 14.856 22.1999 14.702C21.6499 14.658 19.8019 14.878 19.2079 15.032C18.7019 15.274 17.7339 15.846 17.6679 16.022C17.5799 16.242 17.9759 17.232 18.1959 17.298C18.3059 17.298 19.3399 17.034 19.3839 16.924C19.4059 16.814 20.7259 16.506 20.9459 16.594H21.0339C21.0339 16.484 21.4959 16.418 22.2439 16.484C22.9919 16.638 22.9479 16.814 22.5959 17.21C22.1779 17.562 21.7599 17.76 19.9339 18.772C17.9099 19.872 17.4919 20.18 17.5359 20.378C17.6019 20.51 17.7559 21.126 17.9319 21.324C18.3059 21.522 18.7239 21.698 18.9879 21.654C19.5819 21.61 20.6599 21.984 21.2319 22.38C22.0679 22.93 22.0239 23.414 21.2319 24.184C20.3959 25.02 18.6579 25.35 17.1839 25.042C16.5459 24.954 16.2599 25.262 16.2379 25.724C16.1719 26.252 17.2939 26.978 18.4159 26.978Z" fill="white"/>
</svg>
