<svg width="30" height="24" viewBox="0 0 30 24" fill="none" xmlns="http://www.w3.org/2000/svg">
<g clip-path="url(#clip0)">
<path d="M28.8777 1.12423C27.3826 -0.376372 24.9562 -0.376372 23.4611 1.12423L9.92183 14.7213L6.53457 11.3245C5.03948 9.82387 2.613 9.82387 1.11791 11.3245C-0.377193 12.8251 -0.377193 15.2617 1.11791 16.7624L7.21105 22.8806C8.70614 24.3812 11.1326 24.3812 12.6277 22.8806L28.8777 6.57176C30.3728 5.06151 30.3728 2.62966 28.8777 1.12423ZM27.5248 5.20626C27.5248 5.20626 11.5297 21.2642 11.2748 21.5199C10.5297 22.2726 9.31399 22.2726 8.56889 21.5199C8.56889 21.5199 2.43653 15.3631 2.41693 15.3438C1.72575 14.5911 1.74536 13.4137 2.47085 12.6851C3.21595 11.9324 4.43163 11.9324 5.17673 12.6851L9.91693 17.4427L24.8189 2.48491C25.564 1.73219 26.7797 1.73219 27.5248 2.48491C28.2699 3.23762 28.2699 4.45354 27.5248 5.20626Z" fill="#F58688"/>
</g>
<defs>
<clipPath id="clip0">
<rect width="30" height="24" fill="white"/>
</clipPath>
</defs>
</svg>
